inDegrees=no
num_controls=7
num_derivatives=13
num_iterations=112
num_multipliers=7
num_parameters=0
num_slacks=7
num_states=26
objective=5.174164
objective_accelerations=0.635695
objective_balance=0.023466
objective_effort=0.164343
objective_height=4.252901
objective_ligament=0.097759
solver_duration=1279.862681
status=Solve_Succeeded
success=true
DataType=double
version=3
OpenSimVersion=4.4-2022-07-23-0e9fedc
endheader
time	/jointset/ground_pelvis/pelvis_tilt/value	/jointset/ground_pelvis/pelvis_tx/value	/jointset/ground_pelvis/pelvis_ty/value	/jointset/hip_l/hip_flexion_l/value	/jointset/hip_l/hip_adduction_l/value	/jointset/hip_l/hip_rotation_l/value	/jointset/back/lumbar_extension/value	/jointset/patellofemoral_l/patellar_flexion_l/value	/jointset/knee_l/knee_flexion_l/value	/jointset/knee_l/knee_adduction_l/value	/jointset/knee_l/knee_rotation_l/value	/jointset/ankle_l/ankle_angle_l/value	/jointset/subtalar_l/subtalar_angle_l/value	/jointset/ground_pelvis/pelvis_tilt/speed	/jointset/ground_pelvis/pelvis_tx/speed	/jointset/ground_pelvis/pelvis_ty/speed	/jointset/hip_l/hip_flexion_l/speed	/jointset/hip_l/hip_adduction_l/speed	/jointset/hip_l/hip_rotation_l/speed	/jointset/back/lumbar_extension/speed	/jointset/patellofemoral_l/patellar_flexion_l/speed	/jointset/knee_l/knee_flexion_l/speed	/jointset/knee_l/knee_adduction_l/speed	/jointset/knee_l/knee_rotation_l/speed	/jointset/ankle_l/ankle_angle_l/speed	/jointset/subtalar_l/subtalar_angle_l/speed	/forceset/tau_hip_flexion_l	/forceset/tau_hip_adduction_l	/forceset/tau_hip_rotation_l	/forceset/tau_knee_flexion_l	/forceset/tau_ankle_angle_l	/forceset/tau_subtalar_angle_l	/forceset/tau_lumbar_extension	lambda_cid13_p0	lambda_cid13_p1	lambda_cid13_p2	lambda_cid13_p3	lambda_cid13_p4	lambda_cid13_p5	lambda_cid14_p0	/jointset/ground_pelvis/pelvis_tilt/accel	/jointset/ground_pelvis/pelvis_tx/accel	/jointset/ground_pelvis/pelvis_ty/accel	/jointset/hip_l/hip_flexion_l/accel	/jointset/hip_l/hip_adduction_l/accel	/jointset/hip_l/hip_rotation_l/accel	/jointset/back/lumbar_extension/accel	/jointset/patellofemoral_l/patellar_flexion_l/accel	/jointset/knee_l/knee_flexion_l/accel	/jointset/knee_l/knee_adduction_l/accel	/jointset/knee_l/knee_rotation_l/accel	/jointset/ankle_l/ankle_angle_l/accel	/jointset/subtalar_l/subtalar_angle_l/accel	gamma_cid13_p0	gamma_cid13_p1	gamma_cid13_p2	gamma_cid13_p3	gamma_cid13_p4	gamma_cid13_p5	gamma_cid14_p0
0	0.04615873751776618	0.1088716361443948	0.9028185429765413	0.1266917050730164	-0.3704151228516525	-0.2363118688308692	-0.2144974744115991	0.2051547269256936	0.2051547269256735	-0.174531642255524	-0.1710809684824543	0.09024399430361882	0.07876112823935665	0	0	0	0	0	0	0	0	0	0	0	0	0	0.124954192187747	-0.0951026332801634	-0.01530648953687283	-0.2743730659833065	0.2201348952886471	-0.06801662817680754	-0.05347653560023641	41.14125775880913	23.57627688479522	-5.456310494955884	-32.76729560111925	-441.1322037654088	-73.73498623183166	-26.62850870038987	-3.254189605253024	-0.702140322133016	-0.7895286480917054	10.51329069220302	-0.05004289845170021	3.289207464216222	-3.482902376755367	9.94792081927738	9.947920819279087	2.440159113448657	-0.5366882364263807	3.743015914858452	1.028310569928954	1.206046937110863e-08	6.221899187746053e-07	-1.506296021632974e-07	5.480165086113392e-08	6.84944361393815e-09	3.023060946960824e-07	8.663364013692764e-08
0.01	0.04600324611078367	0.1088366971378961	0.9027802390260983	0.1272029235314082	-0.3704165956652073	-0.2361395291418064	-0.2146752044131252	0.2056397167314364	0.2056397167313216	-0.1744113487870023	-0.1710952834325854	0.09042694481860024	0.07881230075704924	-0.03096983208704619	-0.006995551203798881	-0.007639037191864123	0.1018414235630596	-0.0002977294461452467	0.03434361945796402	-0.03528556772346253	0.09654910687409729	0.09654910687411543	0.02392077436850162	-0.00280889856172622	0.03636407777757372	0.01016675276579565	0.1208806491895318	-0.1016184388771506	-0.01418322606188411	-0.2680296369255795	0.208318180180502	-0.05868647427737275	-0.05045473030705448	37.83590995446404	19.73596330947064	-4.424890245470661	-30.51859060712975	-441.7337767486225	-81.17510399947206	-26.62780999833393	-2.999111262051923	-0.6994140457159363	-0.7478269502768237	9.95922850991826	-0.02018068709189792	3.488332040152394	-3.512319082433524	9.441060154046498	9.441060154047344	2.347434999011718	-0.1449154792765211	3.549217689093574	1.000614985635516	1.169946748304891e-08	9.057747639234467e-07	-1.581554014698014e-07	8.760946751411685e-08	-1.506474994102578e-07	3.553951193163106e-07	1.290851011079433e-07
0.02	0.04554191013258549	0.1087315723141156	0.9026661975646287	0.128720488289794	-0.3704211543171333	-0.2356274746875241	-0.2151979771143392	0.2070767285124209	0.2070767285124188	-0.174055967894857	-0.171136072331008	0.09096675890731826	0.0789630922735461	-0.06116891423897221	-0.01403716345638738	-0.01514750220533314	0.2012692599884872	-0.0006171676681649886	0.06794295305856629	-0.06900853993855438	0.1904043950510314	0.1904043950510362	0.04701748475545992	-0.005294789652691728	0.07137271475062097	0.01992379976082608	0.1168071061924653	-0.1081342444739834	-0.01305996258670611	-0.2616862078670784	0.1965014650726966	-0.04935632037767241	-0.04743292501327474	34.57639185633808	15.90181261596334	-3.410659883500829	-28.33175483905944	-441.527026705745	-88.43276201015154	-26.62547785394254	-3.100039618228606	-0.711352531891274	-0.7634142124126615	10.03057326467666	-0.05438465362652887	3.140350292743844	-3.17038327508104	9.409157079844841	9.409157079840242	2.275346317140141	-0.4720867422742948	3.471927753952814	0.9463694157758766	1.133846559498919e-08	1.189359609072288e-06	-1.656812007763054e-07	1.204172841670998e-07	-3.081444424344537e-07	4.084841439365389e-07	1.715365620789589e-07
0.03	0.04478208198965505	0.108555879143882	0.902477473530072	0.1312207342574424	-0.3704290103252568	-0.2347850545196627	-0.2160499367532213	0.2094394219229268	0.209439421922855	-0.1734737461742404	-0.171201884037636	0.09185007123827332	0.07920952844447336	-0.09066495852013642	-0.02110009866399463	-0.02259397293314621	0.2983557869619495	-0.0009573948519250707	0.1003993722906316	-0.1011404378324585	0.2816770518648242	0.2816770518648118	0.06926178409824547	-0.007804846363611713	0.1050672360815878	0.02929991415602918	0.112645204515628	-0.102794260132422	-0.01197268651839239	-0.2560012334603264	0.188702354567977	-0.05082190239181811	-0.04438636866258033	31.97393584139547	16.80543125822304	-3.339345600984552	-26.37527589099436	-441.4739826267941	-85.68250253088519	-26.62123570911471	-2.854613364659978	-0.70353401113332	-0.7348260022018092	9.484074382839243	-0.02449757963315208	3.277090895943823	-3.198150545103683	8.917700228401051	8.917700228401605	2.174392960606988	-0.1311131908141856	3.284875340936128	0.9235360444981273	8.061761124114063e-09	1.285552541527565e-06	-1.527604853359114e-07	1.359392861342757e-07	-4.260389816377957e-07	4.050077725712239e-07	1.873588626173012e-07
